<?xml version="1.0" encoding="UTF-8"?>
<svg width="14px" height="17px" viewBox="0 0 14 17" version="1.1" xmlns="http://www.w3.org/2000/svg" xmlns:xlink="http://www.w3.org/1999/xlink">
    <!-- Generator: Sketch 46.2 (44496) - http://www.bohemiancoding.com/sketch -->
    <title>f pin</title>
    <desc>Created with Sketch.</desc>
    <defs></defs>
    <g id="Page-1" stroke="none" stroke-width="1" fill="none" fill-rule="evenodd">
        <g id="home" transform="translate(-494.000000, -3774.000000)" stroke="#CB2F6E" fill-rule="nonzero">
            <path d="M500.99945,3775 C497.691399,3775 495,3777.69195 495,3781.00055 C495,3785.91921 500.435834,3790.09755 500.667491,3790.27288 C500.765595,3790.34735 500.88266,3790.38445 500.99945,3790.38445 C501.120638,3790.38445 501.241825,3790.34433 501.341852,3790.26463 C501.57296,3790.08052 507,3785.70184 507,3781.00027 C507,3777.69195 504.308052,3775 500.99945,3775 Z M500.99945,3778.59549 C499.674361,3778.59549 498.596043,3779.67436 498.596043,3781.00055 C498.596043,3782.32564 499.674361,3783.40396 500.99945,3783.40396 C502.32454,3783.40396 503.402858,3782.32564 503.402858,3781.00055 C503.402858,3779.67436 502.32454,3778.59549 500.99945,3778.59549 Z" id="f-pin"></path>
        </g>
    </g>
</svg>
