<?xml version="1.0" encoding="UTF-8"?>
<svg width="22px" height="67px" viewBox="0 0 22 67" version="1.1" xmlns="http://www.w3.org/2000/svg" xmlns:xlink="http://www.w3.org/1999/xlink">
    <!-- Generator: Sketch 46.2 (44496) - http://www.bohemiancoding.com/sketch -->
    <title>serv1</title>
    <desc>Created with Sketch.</desc>
    <defs></defs>
    <g id="Page-1" stroke="none" stroke-width="1" fill="none" fill-rule="evenodd">
        <g id="Artboard" transform="translate(-165.000000, -85.000000)" fill-rule="nonzero" fill="#FFFFFF">
            <g id="Group-Copy-8" transform="translate(139.000000, 82.000000)">
                <path d="M46.8666667,57.1833333 L45.0577778,57.1833333 L45.0577778,22.7922222 C45.0577778,20.5211111 43.2488889,18.7366667 40.9466667,18.7366667 L40.2066667,18.7366667 L40.2066667,17.2766667 C40.2066667,15.8977778 39.22,14.6811111 37.9044444,14.3566667 L37.9044444,4.05555556 C37.9044444,3.56888889 37.5755556,3.24444444 37.0822222,3.24444444 C36.5888889,3.24444444 36.26,3.56888889 36.26,4.05555556 L36.26,14.2755556 C34.9444444,14.6 33.9577778,15.8166667 33.9577778,17.1955556 L33.9577778,18.6555556 L32.8888889,18.6555556 C30.5866667,18.6555556 28.7777778,20.44 28.7777778,22.7111111 L28.7777778,57.1022222 L27.1333333,57.1022222 C26.64,57.1022222 26.3111111,57.4266667 26.3111111,57.9133333 C26.3111111,58.4 26.64,58.7244444 27.1333333,58.7244444 L33.3,58.7244444 L33.3,68.1333333 L31.82,68.1333333 C31.3266667,68.1333333 30.9977778,68.4577778 30.9977778,68.9444444 C30.9977778,69.4311111 31.3266667,69.7555556 31.82,69.7555556 L42.0155556,69.7555556 C42.5088889,69.7555556 42.8377778,69.4311111 42.8377778,68.9444444 C42.8377778,68.4577778 42.5088889,68.1333333 42.0155556,68.1333333 L40.6177778,68.1333333 L40.6177778,58.8055556 L46.9488889,58.8055556 C47.4422222,58.8055556 47.7711111,58.4811111 47.7711111,57.9944444 C47.7711111,57.5077778 47.36,57.1833333 46.8666667,57.1833333 Z M35.6022222,17.2766667 C35.6022222,16.4655556 36.26,15.8166667 37.0822222,15.8166667 C37.9044444,15.8166667 38.5622222,16.4655556 38.5622222,17.2766667 L38.5622222,18.7366667 L35.6022222,18.7366667 L35.6022222,17.2766667 L35.6022222,17.2766667 Z M32.8888889,20.3588889 L40.9466667,20.3588889 C42.3444444,20.3588889 43.4133333,21.4133333 43.4133333,22.7922222 L43.4133333,33.1744444 L30.4222222,33.1744444 L30.4222222,29.4433333 L35.1088889,29.4433333 C35.6022222,29.4433333 35.9311111,29.1188889 35.9311111,28.6322222 C35.9311111,28.1455556 35.6022222,27.8211111 35.1088889,27.8211111 L30.4222222,27.8211111 L30.4222222,22.7922222 C30.4222222,21.4133333 31.4911111,20.3588889 32.8888889,20.3588889 Z M30.4222222,50.9377778 L35.1088889,50.9377778 C35.6022222,50.9377778 35.9311111,50.6133333 35.9311111,50.1266667 C35.9311111,49.64 35.6022222,49.3155556 35.1088889,49.3155556 L30.4222222,49.3155556 L30.4222222,45.5844444 L35.1088889,45.5844444 C35.6022222,45.5844444 35.9311111,45.26 35.9311111,44.7733333 C35.9311111,44.2866667 35.6022222,43.9622222 35.1088889,43.9622222 L30.4222222,43.9622222 L30.4222222,40.2311111 L35.1088889,40.2311111 C35.6022222,40.2311111 35.9311111,39.9066667 35.9311111,39.42 C35.9311111,38.9333333 35.6022222,38.6088889 35.1088889,38.6088889 L30.4222222,38.6088889 L30.4222222,34.8777778 L43.4133333,34.8777778 L43.4133333,57.2644444 L30.4222222,57.2644444 L30.4222222,50.9377778 Z M38.9733333,68.2144444 L34.9444444,68.2144444 L34.9444444,58.8055556 L38.9733333,58.8055556 L38.9733333,68.2144444 Z" id="Shape"></path>
            </g>
        </g>
    </g>
</svg>
