<?xml version="1.0" encoding="UTF-8"?>
<svg width="69px" height="65px" viewBox="0 0 69 65" version="1.1" xmlns="http://www.w3.org/2000/svg" xmlns:xlink="http://www.w3.org/1999/xlink">
    <!-- Generator: Sketch 46.2 (44496) - http://www.bohemiancoding.com/sketch -->
    <title>serv7</title>
    <desc>Created with Sketch.</desc>
    <defs></defs>
    <g id="Page-1" stroke="none" stroke-width="1" fill="none" fill-rule="evenodd">
        <g id="Artboard" transform="translate(-862.000000, -266.000000)" fill="#FFFFFF">
            <g id="Group" transform="translate(859.000000, 262.000000)">
                <g transform="translate(3.288889, 4.055556)" id="Shape">
                    <path d="M7.47564444,50.6100889 C8.67937778,50.6100889 9.89873333,50.3099778 11.0153111,49.6773111 C12.6663333,48.7412889 13.8495111,47.2269444 14.3461333,45.4133 C14.8427556,43.5996556 14.5936222,41.7040889 13.6447778,40.0753778 C12.6959333,38.4466667 11.1608444,37.2802889 9.32317778,36.7895667 C7.48551111,36.2996556 5.56315556,36.5454222 3.91213333,37.4822556 C2.26111111,38.4174667 1.07793333,39.9326222 0.581311111,41.7454556 C0.0846888889,43.5591 0.333822222,45.4546667 1.28266667,47.0833778 C2.59986667,49.3431333 5.00486667,50.6100889 7.47564444,50.6100889 Z M12.7584222,44.9899 C12.3769111,46.3858222 11.4667111,47.5497667 10.1963778,48.2700333 C7.81686667,49.6189111 4.83548889,49.0016556 3.17788889,46.9446778 L12.5701333,41.6197333 C12.9944,42.6895889 13.0675778,43.8592111 12.7584222,44.9899 Z M2.16902222,42.1680444 C2.55135556,40.7721222 3.46073333,39.6081778 4.73188889,38.8879111 C5.57466667,38.4093556 6.50953333,38.1652111 7.45591111,38.1652111 C7.93526667,38.1652111 8.41873333,38.2276667 8.8948,38.3542 C10.0401556,38.6599889 11.0276444,39.3113111 11.7512,40.2124556 L2.35813333,45.5374 C1.93304444,44.4683556 1.85986667,43.2979222 2.16902222,42.1680444 Z" fill-rule="nonzero"></path>
                    <path d="M40.9294,51.7578111 C37.5212889,53.6906889 36.3422222,57.9976889 38.3007556,61.3597444 C39.2496,62.9884556 40.7846889,64.1548333 42.6231778,64.6455556 C43.2414889,64.8102111 43.8696667,64.8921333 44.4929111,64.8921333 C45.7237778,64.8921333 46.9382,64.5741778 48.0334,63.9536778 C49.6844222,63.0176556 50.8676,61.5033111 51.3642222,59.6904778 C51.8608444,57.8768333 51.6117111,55.9812667 50.6628667,54.3525556 C48.7035111,50.9896889 44.3383333,49.8265556 40.9294,51.7578111 Z M41.7483333,53.1642778 C42.6075556,52.6768 43.5457111,52.4456333 44.4715333,52.4456333 C46.1102222,52.4456333 47.7102667,53.1740111 48.7692889,54.4888222 L39.3762222,59.8137667 C38.4092889,57.3650222 39.3704667,54.5131556 41.7483333,53.1642778 Z M49.7765111,59.2654556 C49.395,60.6613778 48.4848,61.8253222 47.2144667,62.5455889 C45.9449556,63.2666667 44.4657778,63.4556556 43.0515556,63.0784889 C41.9062,62.7727 40.9187111,62.1213778 40.1951556,61.2202333 L49.5890444,55.8952889 C50.0124889,56.9667667 50.0856667,58.1363889 49.7765111,59.2654556 Z" fill-rule="nonzero"></path>
                    <path d="M32.3232,13.7199444 C33.0500444,13.9535444 33.7966222,14.0695333 34.5407333,14.0695333 C35.6482667,14.0695333 36.7475778,13.8124111 37.7630222,13.3030333 C39.4600889,12.4521778 40.7205556,10.9994778 41.3100889,9.21341111 C42.5286222,5.52772222 40.4788222,1.55003333 36.7418222,0.347155556 C33.0031778,-0.852477778 28.9726444,1.168 27.7541111,4.8545 C27.1637556,6.63975556 27.3142222,8.54586667 28.1767333,10.22 C29.0408889,11.8949444 30.5134889,13.1375667 32.3232,13.7199444 Z M37.0180889,11.8568222 C35.7115778,12.5105778 34.225,12.6257556 32.8329778,12.1772111 C31.4401333,11.7294778 30.3079333,10.7739889 29.6435778,9.48594444 C29.1058444,8.44204444 28.9348222,7.28296667 29.1272222,6.14903333 L39.4272,9.46161111 C38.9075556,10.4892889 38.0762889,11.3263556 37.0180889,11.8568222 Z M34.5374444,1.62303333 C35.0990222,1.62303333 35.6704667,1.7082 36.2328667,1.88988889 C38.8409556,2.72857778 40.3735778,5.32494444 39.9369778,7.91806667 L29.637,4.60548889 C30.5751556,2.76264444 32.4934,1.62303333 34.5374444,1.62303333 Z" fill-rule="nonzero"></path>
                    <path d="M63.0060667,31.3859444 C59.2690667,30.1879333 55.2368889,32.2059778 54.0183556,35.8932889 C53.428,37.6785444 53.5784667,39.5846556 54.4409778,41.2587889 C55.3034889,42.9337333 56.7760889,44.1771667 58.5866222,44.7587333 C59.3134667,44.9923333 60.0600444,45.1083222 60.8041556,45.1083222 C61.9116889,45.1083222 63.011,44.8512 64.0264444,44.3418222 C65.7235111,43.4909667 66.9839778,42.0382667 67.5735111,40.2522 C68.7928667,36.5665111 66.7430667,32.5888222 63.0060667,31.3859444 Z M63.2815111,42.8964222 C61.975,43.5509889 60.4884222,43.6661667 59.0964,43.2168111 C57.7035556,42.7690778 56.5705333,41.8135889 55.907,40.5255444 C55.3692667,39.4816444 55.1982444,38.3225667 55.3906444,37.1886333 L65.6906222,40.5012111 C65.1701556,41.5280778 64.3388889,42.3659556 63.2815111,42.8964222 Z M66.2004,38.9576667 L55.9004222,35.6450889 C56.8385778,33.8030556 58.756,32.6626333 60.8008667,32.6626333 C61.3624444,32.6626333 61.9338889,32.7478 62.4962889,32.9294889 C65.1043778,33.7681778 66.637,36.3645444 66.2004,38.9576667 Z" fill-rule="nonzero"></path>
                    <path d="M11.2299111,27.3190333 C11.5678444,27.3896 11.9082444,27.4244778 12.2453556,27.4244778 C13.1769333,27.4244778 14.0887778,27.1592444 14.8879778,26.6458111 C15.9766,25.9474444 16.7231778,24.8711 16.9920444,23.6187444 L20.0638667,9.28154444 C20.6180444,6.6941 18.9349556,4.14396667 16.3120667,3.59646667 C13.6883556,3.04653333 11.1041111,4.71012222 10.5499333,7.29675556 L7.47811111,21.6347667 C7.20924444,22.8879333 7.4518,24.1694889 8.16055556,25.2434 C8.87013333,26.3165 9.95957778,27.0538 11.2299111,27.3190333 Z M12.1598444,7.63255556 C12.4796889,6.14011111 13.8190889,5.11486667 15.3073111,5.11486667 C15.5268444,5.11486667 15.7496667,5.13676667 15.9733111,5.18381111 C17.7090222,5.54556667 18.8231333,7.23348889 18.4564222,8.94574444 L17.0907111,15.3202667 L10.7957778,14.0078889 L12.1598444,7.63255556 Z M9.08802222,21.9705667 L10.4537333,15.5952333 L16.7486667,16.9076111 L15.3829556,23.2821333 C15.2053556,24.1119 14.7112,24.8232444 13.9909333,25.2863889 C13.2706667,25.7495333 12.4114444,25.9068889 11.5703111,25.7316889 C10.73,25.5564889 10.0089111,25.0690111 9.53942222,24.3584778 C9.07075556,23.6471333 8.9096,22.7995222 9.08802222,21.9705667 Z" fill-rule="nonzero"></path>
                    <path d="M57.5144444,20.9501889 C58.0423111,22.1206222 59.0010222,23.0185222 60.2129778,23.4776111 C60.7794889,23.6925556 61.3690222,23.7988111 61.9585556,23.7988111 C62.6303111,23.7988111 63.3012444,23.6593 63.9327111,23.3819 C65.1191778,22.8603556 66.0293778,21.9154111 66.4947556,20.7198333 C66.9601333,19.5242556 66.9264222,18.2208 66.3985556,17.0511778 L60.3601556,3.66135556 C59.2707111,1.24505556 56.3921111,0.156544444 53.9418889,1.22883333 C52.7554222,1.75037778 51.8452222,2.69532222 51.3790222,3.8909 C50.9128222,5.08647778 50.9481778,6.38993333 51.4760444,7.55955556 L57.5144444,20.9501889 Z M64.9596667,20.1390778 C64.6513333,20.9307222 64.0494667,21.5560889 63.2642444,21.9 C62.4790222,22.2455333 61.605,22.2666222 60.8025111,21.9632667 C60.0000222,21.6591 59.3660889,21.0653667 59.0166444,20.2907556 L56.3320889,14.3372 L62.2118,11.7570556 L64.8963556,17.7106111 C65.2458,18.4852222 65.268,19.3482444 64.9596667,20.1390778 Z M52.9149333,4.47327778 C53.2232667,3.68163333 53.8251333,3.05626667 54.6103556,2.71235556 C56.2317778,2.0002 58.1368667,2.72371111 58.8579556,4.32078889 L61.5425111,10.2743444 L55.6628,12.8544889 L52.9782444,6.90093333 C52.6296222,6.12713333 52.6066,5.26411111 52.9149333,4.47327778 Z" fill-rule="nonzero"></path>
                    <path d="M27.121,35.2281778 C27.9695333,35.8535444 28.9775778,36.1820444 30.0176889,36.1820444 C30.2536667,36.1820444 30.4904667,36.1650111 30.7280889,36.1309444 L45.4286,34.0220556 C46.7137333,33.8379333 47.8492222,33.1703889 48.6254,32.1443333 C49.4015778,31.1182778 49.7263556,29.8545667 49.5397111,28.5868 C49.3530667,27.3190333 48.6772,26.1988889 47.6362667,25.4323889 C46.5953333,24.6658889 45.3134889,24.3463111 44.0291778,24.5304333 L29.3286667,26.6393222 C28.0435333,26.8242556 26.9080444,27.4909889 26.1318667,28.5170444 C25.3556889,29.5431 25.0309111,30.8068111 25.2175556,32.0745778 C25.4042,33.3415333 26.0800667,34.4616778 27.121,35.2281778 Z M44.2659778,26.1348111 C45.1161556,26.0155778 45.9638667,26.2248444 46.6528889,26.7317889 C47.3419111,27.2387333 47.7892,27.9800889 47.9125333,28.8187778 C48.0358667,29.6574667 47.8212667,30.4937222 47.3073778,31.1726222 C46.7934889,31.8523333 46.0419778,32.2943889 45.1918,32.4160556 L38.6551333,33.3537 L37.7293111,27.0716444 L44.2659778,26.1348111 Z M27.4498889,29.4871333 C27.9637778,28.8074222 28.7152889,28.3653667 29.5654667,28.2437 L36.1021333,27.3060556 L37.0279556,33.5881111 L30.4904667,34.5257556 C29.6402889,34.6449889 28.7925778,34.4357222 28.1035556,33.9287778 C27.4145333,33.4218333 26.9672444,32.6804778 26.8439111,31.8417889 C26.7214,31.0022889 26.936,30.1652222 27.4498889,29.4871333 Z" fill-rule="nonzero"></path>
                    <path d="M14.0361556,60.8300889 C14.2318444,62.0970444 14.9159333,63.2123222 15.9618,63.9707111 C16.8276,64.5985111 17.8356444,64.9010556 18.8362889,64.9010556 C20.3310889,64.9010556 21.8069778,64.2254 22.7591111,62.9495222 L31.5618222,51.1446111 C33.1503556,49.0146333 32.6858,46.0062222 30.5266444,44.4383444 C28.3666667,42.8720889 25.3170444,43.3303667 23.7293333,45.4603444 L14.9266222,57.2652556 C14.1570222,58.2978 13.8404667,59.5639444 14.0361556,60.8300889 Z M25.0539333,46.4223222 C26.1047333,45.0118 28.1232889,44.7084444 29.5523111,45.7458556 C30.9813333,46.7824556 31.2888444,48.7737333 30.2372222,50.1834444 L26.3234444,55.4321444 L21.1401556,51.6710222 L25.0539333,46.4223222 Z M16.2512222,58.2264222 L20.165,52.9785333 L25.3482889,56.7396556 L21.4345111,61.9883556 C20.3845333,63.3972556 18.3668,63.7022333 16.9361333,62.6640111 C16.2438222,62.1619333 15.7916,61.4238222 15.6616889,60.5859444 C15.5326,59.7472556 15.7422667,58.9093778 16.2512222,58.2264222 Z" fill-rule="nonzero"></path>
                </g>
            </g>
        </g>
    </g>
</svg>
