<?xml version="1.0" encoding="UTF-8"?>
<svg width="59px" height="52px" viewBox="0 0 59 52" version="1.1" xmlns="http://www.w3.org/2000/svg" xmlns:xlink="http://www.w3.org/1999/xlink">
    <!-- Generator: Sketch 46.2 (44496) - http://www.bohemiancoding.com/sketch -->
    <title>serv12</title>
    <desc>Created with Sketch.</desc>
    <defs></defs>
    <g id="Page-1" stroke="none" stroke-width="1" fill="none" fill-rule="evenodd">
        <g id="Artboard" transform="translate(-1227.000000, -453.000000)" fill-rule="nonzero" fill="#FFFFFF">
            <g id="Group-Copy-3" transform="translate(1219.000000, 442.000000)">
                <path d="M32.8537578,51.3168359 C32.2889084,51.3168359 31.751942,51.24833 31.2582907,51.0933266 C30.5489409,50.8703363 29.9667304,50.4771191 29.5421728,49.9394513 C27.7339884,50.117117 25.6590745,48.8457782 24.2563332,47.3344956 C23.3363705,46.3434083 22.7529325,45.3261989 22.5403906,44.391335 C20.3409679,45.0260529 17.3215403,44.7297128 15.5756104,43.5279179 C14.788048,42.9855792 14.324384,42.2825283 14.2212696,41.5106255 C11.7545912,41.0006369 9.98481176,38.3776897 9.09922056,35.8675351 C8.20538722,33.3340262 7.97004794,30.3066172 9.30650151,28.8660894 C9.55183658,24.9654026 12.7289169,21.2849382 15.6997685,19.095516 C16.4415608,18.5488524 18.7295426,16.9725238 20.553159,16.8704569 C21.2591769,15.6639911 22.7213669,14.534854 24.5588371,13.8139847 C26.5790372,13.0213225 28.606778,12.8922684 30.1452516,13.4335691 C31.878906,11.9985772 34.8218746,11.4949894 37.1465077,11.505888 C38.0233306,11.5122888 40.7260497,11.6257734 42.2799554,12.7204845 C43.5978203,12.2279683 45.3751405,12.1554835 47.1945482,12.538494 C49.1670491,12.9536815 50.7390173,13.80447 51.6111055,14.9105987 C54.1912447,15.0370579 56.8469662,16.5618341 59.1481004,19.2527683 C61.3789134,21.8613569 62.8751241,25.0771573 62.8631993,27.1055213 C65.0729685,28.9103761 66.346817,32.076527 66.2956105,35.7076879 C66.2729885,37.3061599 65.9510191,39.1892083 65.1510058,40.2766536 C65.4761317,41.1603111 65.7009492,42.5622609 65.004401,43.7699377 C64.1086386,45.323085 62.1121127,45.9576299 59.0707646,45.6581759 C51.739297,44.9352306 45.7579614,45.8586769 41.2914252,48.4037764 C39.2322941,49.5772002 35.6986976,51.3166629 32.8537578,51.3168359 Z M30.0025048,47.9128172 C30.3691922,47.9128172 30.717817,48.120238 30.8793278,48.4674385 C31.0688969,48.8746683 31.3752589,49.1329495 31.8436577,49.2799951 C33.4798094,49.7944817 36.6509273,48.850449 40.3267446,46.7560009 C45.1508492,44.0074595 51.522371,43.0011488 59.2626134,43.7647478 C61.3813685,43.9735525 62.8160262,43.6543771 63.3056442,42.8658668 C63.7952621,42.0775295 63.3678986,40.8772916 63.2144546,40.6416726 C63.0575033,40.4320029 62.9987561,40.1737217 63.0445263,39.9171704 C63.0902964,39.6606191 63.244968,39.4393588 63.4648752,39.2952541 C63.7549283,39.1051328 64.3366126,37.8114777 64.3667753,35.6812197 C64.3839611,34.4666232 64.2135067,30.345887 61.3017529,28.3215018 C60.989604,28.1045663 60.836686,27.7263997 60.9113914,27.3572288 C61.1230564,26.3138971 59.9935331,23.1930709 57.6734595,20.4799934 C56.4709845,19.0737187 54.0125482,16.7241033 51.1216629,16.8071408 C50.7579567,16.8170015 50.4300249,16.6306861 50.2543096,16.3232743 C49.7757396,15.4856335 48.4489311,14.7486756 46.7919111,14.3997451 C45.1543565,14.0551394 43.5029481,14.1622232 42.5843884,14.6727309 C42.1808744,14.8969322 41.6728432,14.8066289 41.3740219,14.4576984 C40.9384163,13.9487476 39.3413709,13.4250924 37.1323031,13.4090039 C34.4713208,13.3858226 32.0328761,14.104097 31.0776651,15.1872174 C30.7798961,15.5249033 30.2837896,15.6122657 29.885712,15.3965411 C28.8128314,14.8152786 27.0448056,14.8865525 25.2718695,15.5821646 C23.6509746,16.2180935 22.3632724,17.2539863 22.0676077,18.1596141 C21.9078505,18.6490164 21.383335,18.9247701 20.8824937,18.7822224 C20.5217688,18.6796365 19.0616832,18.9932761 16.8545444,20.6199462 C12.7203241,23.6665577 11.2358628,27.2030904 11.2209568,29.3056692 C11.218677,29.6094481 11.0696171,29.8940246 10.8197226,30.0713442 C10.1680678,30.5337593 10.0496967,32.7709281 10.9216094,35.2419859 C11.6660321,37.3520035 13.228706,39.7901922 15.2027853,39.6938341 C15.5156357,39.6791296 15.8153338,39.8157955 16.0077087,40.0586802 C16.2000837,40.3019109 16.2611106,40.6221242 16.1713239,40.9175994 C16.1141551,41.1052987 15.9954332,41.495921 16.680232,41.9673318 C18.2250187,43.0310769 21.6516428,43.1084055 23.0014241,42.1091876 C23.3581157,41.8453705 23.851767,41.8567881 24.1954816,42.1375587 C24.5388455,42.4181563 24.642486,42.894584 24.446253,43.2895311 C24.2159993,43.7526382 24.5656763,44.8492522 25.6795922,46.0491442 C27.0032442,47.4747943 28.750577,48.3207389 29.6561597,47.9766523 C29.7696206,47.9334036 29.8869395,47.9128172 30.0025048,47.9128172 Z" id="Shape"></path>
                <path d="M48.1099513,62.0662139 C47.7194144,62.0662139 47.3522009,61.830595 47.2068237,61.4487955 C46.738951,60.2193214 45.5892607,59.1882724 44.372055,58.0965022 C41.9244914,55.9015442 38.8785837,53.1696102 39.8581704,47.4223769 C39.9465541,46.9040845 40.4454664,46.554981 40.9692804,46.6418244 C41.4944974,46.7290138 41.8489092,47.219627 41.7605255,47.7379194 C40.955602,52.4605045 43.2455129,54.5141258 45.669753,56.6883245 C47.0642523,57.9389039 48.3814157,59.1202855 49.0129036,60.7799976 C49.2000177,61.2719948 48.9474927,61.8205613 48.4487557,62.0051468 C48.3370485,62.0464925 48.2225354,62.0662139 48.1099513,62.0662139 Z" id="Shape"></path>
                <path d="M51.445912,54.1248875 C50.1510199,54.1248875 48.9778307,54.0069051 48.1013585,53.8826948 C44.8062578,53.4154359 41.6567096,52.3298935 40.0772007,51.1177189 C39.6568518,50.7950836 39.5812697,50.1972136 39.9083246,49.782372 C40.2353796,49.3675305 40.8414397,49.2931427 41.2619639,49.615778 C42.3195878,50.4276426 44.9970544,51.5199318 48.3758041,51.9989544 C51.9248327,52.5025423 54.9928363,52.1684893 57.0139133,51.0589007 C59.1898371,49.8643716 60.0919126,47.8417163 59.7715215,44.8758934 C59.7150541,44.3532761 60.0985765,43.8846332 60.6283529,43.8289289 C61.1569018,43.7727056 61.6330167,44.1515642 61.6896594,44.6741815 C62.1950602,49.3521339 59.9361888,51.6325514 57.9522892,52.7218997 C55.9601474,53.8153998 53.5432726,54.1248875 51.445912,54.1248875 Z" id="Shape"></path>
                <path d="M63.9990358,41.0395607 C63.9083723,41.0395607 63.8161305,41.0269321 63.7249409,41.0001179 C54.2640211,38.2358339 47.6071811,39.8237532 47.5408932,39.8401877 C47.0249706,39.9673389 46.5004551,39.6592352 46.3703346,39.1504575 C46.2400387,38.6415067 46.5513108,38.1247713 47.0670581,37.9955442 C47.3565851,37.9230593 54.2675283,36.2522755 64.2726045,39.1755417 C64.7834416,39.3246632 65.0747222,39.8542003 64.9235579,40.3579612 C64.7992244,40.7717647 64.4151759,41.0395607 63.9990358,41.0395607 Z" id="Shape"></path>
                <path d="M53.5872891,30.6685223 C51.3645429,30.6685223 49.7229549,30.1910566 48.8303491,29.847662 C47.4088437,29.3006524 47.2796,28.948089 47.2026149,28.7375543 C47.0216387,28.2433082 47.2811783,27.6980285 47.7821949,27.5194979 C48.1327487,27.3942497 48.5085551,27.482304 48.7647627,27.715501 C49.1716086,27.947833 54.0314876,30.4946625 61.4118819,26.7000215 C61.8841388,26.4574828 62.4668753,26.6380894 62.7129118,27.1039644 C62.9591237,27.5698394 62.7756924,28.1445281 62.3034355,28.3874128 C58.8885608,30.1433101 55.9184106,30.6685223 53.5872891,30.6685223 Z M49.0164109,28.0895158 C49.0164109,28.0895158 49.0164109,28.0896888 49.0164109,28.0896888 C49.0164109,28.0896888 49.0164109,28.0895158 49.0164109,28.0895158 Z" id="Shape"></path>
                <path d="M59.9505687,35.5246594 C58.5020572,35.5246594 57.3120331,35.1018601 56.4036445,34.2624893 C54.5595104,32.5583175 54.682441,29.7867678 54.6884034,29.6696503 C54.7159356,29.1447841 55.1689024,28.7430901 55.7013093,28.7685204 C56.2321379,28.7955076 56.640562,29.2411422 56.6149588,29.7646245 C56.6135559,29.8007804 56.5437608,31.7926425 57.7294008,32.8804338 C58.3968384,33.4924894 59.3911557,33.7268974 60.6846449,33.5776029 C61.2131938,33.5148058 61.6929914,33.8898585 61.7550704,34.4117838 C61.8171495,34.9337091 61.438362,35.4065039 60.9094623,35.4675711 C60.578374,35.50563 60.2583336,35.5246594 59.9505687,35.5246594 Z" id="Shape"></path>
                <path d="M36.7145847,28.4953616 C36.5004645,28.4953616 36.2851168,28.4254717 36.1062449,28.281713 C35.6932613,27.950082 35.6308315,27.351001 35.96683,26.9435982 C36.0262786,26.8711134 40.7788345,21.0055516 41.1476262,13.7959932 C41.174457,13.271127 41.6256701,12.8697791 42.1596553,12.8936523 C42.6915361,12.9201205 43.1011878,13.3671391 43.074357,13.8920053 C42.6724214,21.7476993 37.675758,27.8871119 37.4630407,28.1447011 C37.2725948,28.3754762 36.9948173,28.4953616 36.7145847,28.4953616 Z" id="Shape"></path>
                <path d="M45.8591468,25.3129492 C45.8179361,25.3129492 45.776024,25.3103543 45.7339365,25.3049914 C43.8785791,25.0676426 40.3318301,23.4608668 40.1883819,19.0778705 C40.1710208,18.5526583 40.5887393,18.1130785 41.1211462,18.096125 C41.6596908,18.0786526 42.0991545,18.4912452 42.1163403,19.0162844 C42.2434796,22.8951738 45.8293348,23.3982427 45.981902,23.4176181 C46.5102755,23.4852591 46.8829253,23.9623788 46.8143577,24.4836121 C46.7514018,24.9633267 46.3366646,25.3129492 45.8591468,25.3129492 Z" id="Shape"></path>
                <path d="M33.9376863,24.921462 C33.7810857,24.921462 33.62203,24.8837491 33.4741977,24.8046905 C33.0059742,24.554194 32.8358706,23.9703365 33.0897985,23.5082674 C33.1587168,23.3830192 34.8399371,20.4384747 40.3064023,20.3803484 C40.3100849,20.3803484 40.3135922,20.3803484 40.3170995,20.3803484 C40.8449469,20.3803484 41.2756424,20.7995148 41.2814294,21.3216131 C41.2870411,21.8469983 40.8600283,22.2775824 40.327446,22.2832912 C36.0706459,22.3286159 34.8290645,24.3426214 34.7783842,24.4284268 C34.6044225,24.7443153 34.2771922,24.921462 33.9376863,24.921462 Z" id="Shape"></path>
                <path d="M29.2496646,22.655922 C29.0769305,22.655922 28.902092,22.6100784 28.7442639,22.5140663 C28.2923493,22.2391776 28.1510054,21.6560121 28.4270293,21.2093395 C28.4573674,21.158306 29.8080255,18.8476145 29.390307,14.6557774 C29.3382237,14.1328141 29.7256041,13.6672851 30.2559067,13.6157326 C30.7862092,13.5640072 31.2579399,13.9466717 31.3101986,14.469635 C31.7992904,19.3759406 30.1424458,22.090748 30.0717738,22.2038866 C29.8890439,22.4953829 29.5730369,22.655922 29.2496646,22.655922 Z" id="Shape"></path>
                <path d="M30.9151022,19.4726447 C30.6185606,19.4726447 30.3509543,19.4594971 30.1319239,19.428704 C29.6046026,19.3543162 29.2382659,18.8723527 29.3136727,18.3519843 C29.3892548,17.831962 29.8776452,17.4707488 30.4051419,17.5447906 C31.2107669,17.6584482 33.5106735,17.3897873 34.7710189,17.1936112 C35.2967619,17.1117846 35.7909393,17.466078 35.8740622,17.9852354 C35.957185,18.5042198 35.5978629,18.9913731 35.0715938,19.0733727 C34.7673362,19.1207732 32.453225,19.4726447 30.9151022,19.4726447 Z" id="Shape"></path>
                <path d="M30.43548,27.3110392 C30.323422,27.3110392 30.2092597,27.2916638 30.0980785,27.250664 C29.7868064,27.1357954 22.4470966,24.3694356 20.2396071,18.1841794 C20.0626643,17.6885493 20.326588,17.1451726 20.8290075,16.9706208 C21.3312517,16.7962421 21.8820719,17.0564263 22.0591902,17.5520564 C23.9703135,22.9072835 30.7053661,25.4428683 30.7732322,25.4679525 C31.2721445,25.651846 31.5257217,26.1998936 31.3393091,26.6922368 C31.194458,27.0749013 30.826543,27.3110392 30.43548,27.3110392 Z" id="Shape"></path>
                <path d="M25.2573143,30.6702522 C25.1247386,30.6702522 24.9900586,30.6430921 24.8611656,30.5858308 C24.3764579,30.3701063 24.1604087,29.8082191 24.3775101,29.3298885 C24.3960987,29.2880238 25.4237353,26.9321806 24.8450321,23.9239739 C24.7457757,23.4077574 25.0894903,22.9098784 25.6127783,22.8117904 C26.1351894,22.7133563 26.6407655,23.0527721 26.7401973,23.5691616 C27.4395513,27.2032634 26.1906046,29.9928046 26.1371184,30.1099221 C25.9759584,30.4617935 25.6248785,30.6702522 25.2573143,30.6702522 Z" id="Shape"></path>
                <path d="M18.6032801,26.1123582 C18.1999415,26.1123582 17.8239598,25.8608237 17.6887537,25.4629357 C17.5197023,24.9650567 17.791342,24.4263508 18.2955152,24.2590649 L18.2955152,24.2590649 C18.3255026,24.2490312 21.3112602,23.2340707 22.7227698,21.1719726 C23.0207142,20.7363717 23.6202858,20.6216762 24.0618538,20.9159403 C24.5032465,21.2100315 24.6195132,21.8015007 24.3213934,22.2369286 C22.5389877,24.8405004 19.0569483,26.0140971 18.909642,26.0628817 C18.8081059,26.0962697 18.7048162,26.1123582 18.6032801,26.1123582 Z" id="Shape"></path>
                <path d="M14.2761587,31.3276325 C12.6573682,31.3276325 11.1332745,30.9226517 9.76227409,30.1164959 C9.30474786,29.847489 9.1549865,29.2634585 9.42767844,28.8119421 C9.70037039,28.3605986 10.2924013,28.2128611 10.7501028,28.481868 C15.3023923,31.1591356 20.5047584,27.2470311 20.5566663,27.2070693 C20.9768399,26.885299 21.5827246,26.9593407 21.9096042,27.3734903 C22.2366591,27.7876399 22.1624799,28.3841259 21.7433585,28.7072802 C21.6800519,28.7560648 20.1680584,29.911324 17.9693371,30.6714632 C16.7030294,31.109486 15.4640785,31.3276325 14.2761587,31.3276325 Z" id="Shape"></path>
                <path d="M18.602754,34.6747359 C18.1785471,34.6747359 17.7897637,34.3963873 17.6727956,33.973242 C17.484454,33.2989083 16.6967162,31.345624 15.5824496,31.2072281 C15.0539007,31.1416631 14.6794973,30.6657544 14.7459605,30.144348 C14.8124237,29.6229417 15.2939748,29.2537708 15.8234006,29.3191628 C16.9646733,29.4608456 17.9772285,30.2573136 18.7516385,31.6224156 C19.2765048,32.5477648 19.5239442,33.4364391 19.5342907,33.473806 C19.6737056,33.9810268 19.3699741,34.5036441 18.8559805,34.6411749 C18.7714547,34.6640102 18.6864029,34.6747359 18.602754,34.6747359 Z" id="Shape"></path>
                <path d="M15.2462757,41.595912 C15.0546022,41.596085 14.8609997,41.5398617 14.6922989,41.4227442 C14.2565179,41.1205223 14.1516499,40.5269771 14.4581872,40.097085 C18.1641672,34.8982452 24.7799718,33.4777849 25.0598537,33.4198316 C25.5812127,33.3115369 26.0924005,33.641438 26.201828,34.1555785 C26.3112555,34.6695461 25.977712,35.1734799 25.4570545,35.2819477 C25.3944494,35.2950953 19.2961456,36.6185055 16.0361178,41.1917961 C15.8483023,41.4550942 15.5496564,41.595912 15.2462757,41.595912 Z" id="Shape"></path>
                <path d="M21.4383995,40.7255751 C21.0257666,40.7255751 20.6439979,40.46245 20.5166832,40.0531443 C20.2031313,39.0523694 19.5930379,37.9554094 19.2729975,37.8116507 C18.7547951,37.7791277 18.3532102,37.3459487 18.3705713,36.8305972 C18.3882831,36.3053849 18.8380933,35.8936573 19.3666422,35.9113028 C21.1285303,35.969083 22.1037328,38.6688399 22.3608173,39.4948901 C22.5170671,39.997267 22.2308721,40.529399 21.7216133,40.6835374 C21.6274425,40.7120815 21.5320442,40.7255751 21.4383995,40.7255751 Z M19.3024587,37.8130346 C19.3024587,37.8130346 19.3026341,37.8130346 19.3028095,37.8130346 C19.3026341,37.8130346 19.3024587,37.8130346 19.3024587,37.8130346 Z" id="Shape"></path>
                <path d="M23.5790751,43.8223551 C23.4319442,43.8223551 23.2825336,43.7891401 23.1422419,43.7185582 C22.6675299,43.4801714 22.4786623,42.9073856 22.7203147,42.4390886 C24.3959234,39.1919762 27.7985226,36.7776607 30.1201745,36.3195705 C30.6939674,36.2062589 31.1641199,36.2143897 31.5457132,36.2882584 C32.312758,35.1814377 33.6243098,34.1995192 35.1680443,33.6118559 C36.6367228,33.0527367 38.0815517,32.9364842 39.2375551,33.2700181 C40.6388935,32.2247835 42.0614511,31.777246 43.4755912,31.9389961 C45.7218363,32.1958934 47.0426824,33.9350102 47.0977469,34.0088789 C47.4135785,34.4320242 47.3215121,35.0276453 46.8925703,35.339036 C46.4648561,35.6493886 45.8637063,35.5602963 45.5473485,35.1409569 C45.5245511,35.1117208 44.6310685,33.9779129 43.2348156,33.8272344 C42.2296258,33.7177287 41.1535886,34.138452 40.0384452,35.0752189 C39.7476907,35.3194876 39.3385651,35.371559 38.9946751,35.2082519 C38.2530582,34.8560345 37.0819735,34.9229835 35.8623127,35.3873015 C34.4341435,35.9310242 33.2570963,36.8997951 32.8637535,37.8555914 C32.7473114,38.1387838 32.5002227,38.3493185 32.1992971,38.4219763 C31.8983714,38.4941152 31.5807862,38.4200734 31.3449208,38.2223403 C31.2717937,38.1611002 31.0117281,38.0844635 30.4982605,38.1856654 C28.6678049,38.5468786 25.8307565,40.6056897 24.4390631,43.3023327 C24.2689594,43.6324068 23.9303304,43.8223551 23.5790751,43.8223551 Z" id="Shape"></path>
                <path d="M34.439229,35.9543785 C34.3005157,35.9543785 34.1595225,35.9246234 34.0260701,35.8619993 C31.3023072,34.5852976 28.5553962,30.41076 28.4398309,30.2336134 C28.1515315,29.7919576 28.2805999,29.2034293 28.7283057,28.9188529 C29.1760115,28.6341034 29.7727772,28.7616006 30.0614273,29.2030833 C30.7677959,30.2834359 33.0059742,33.2769379 34.8539663,34.1432959 C35.3351668,34.3688811 35.5398172,34.9363041 35.3111418,35.4110018 C35.1459484,35.7537045 34.799954,35.9543785 34.439229,35.9543785 Z" id="Shape"></path>
                <path d="M42.4902176,33.8106269 C42.0989792,33.8106269 41.7307135,33.57397 41.5862131,33.1909595 C40.6725635,30.7707622 41.5155412,27.2032634 41.5518416,27.0525849 C41.6751229,26.5412123 42.1957804,26.2251508 42.7132813,26.3471121 C43.2313083,26.4685545 43.5513487,26.9811381 43.4285935,27.4921647 L43.4285935,27.4921647 C43.2197343,28.3647505 42.8062246,30.9702252 43.3940467,32.5270055 C43.5799332,33.0195217 43.3258299,33.5673962 42.8267422,33.7507707 C42.7157364,33.7912515 42.6021002,33.8106269 42.4902176,33.8106269 Z" id="Shape"></path>
                <path d="M42.9638773,41.296285 C42.7581747,41.296285 42.5508937,41.2317579 42.3755291,41.0980329 C41.4150572,40.3671299 40.4677377,39.0492555 39.5596998,37.1810846 C38.9071682,35.838818 38.5157544,34.7032801 38.4994455,34.6555335 C38.3286404,34.1578275 38.5994033,33.6177377 39.1041026,33.4494137 C39.6088019,33.2807438 40.1561148,33.5481938 40.3267446,34.0458998 C40.7267512,35.2099818 42.0860022,38.4742208 43.5536285,39.5912482 C43.9753803,39.9121536 44.0535929,40.5098506 43.7281162,40.9257301 C43.5383717,41.1689608 43.2527028,41.296285 42.9638773,41.296285 Z" id="Shape"></path>
                <path d="M30.0028555,49.816279 C29.8976368,49.816279 29.7906644,49.7989795 29.685621,49.7629966 C29.1825,49.5901748 28.9168226,49.0476631 29.0920118,48.551514 C31.1136149,42.825213 36.7736825,40.2154135 37.0135813,40.1072917 C37.498289,39.8889723 38.0703283,40.0991609 38.2919892,40.5767996 C38.5134747,41.0542653 38.3009328,41.6184013 37.8172772,41.8372397 C37.7506387,41.8678598 32.6566479,44.2408295 30.9136992,49.1774092 C30.7749859,49.5701074 30.40181,49.816106 30.0028555,49.816279 Z" id="Shape"></path>
                <path d="M33.2579731,44.8077335 C31.3487788,44.8077335 28.9176994,42.9023687 28.6420263,42.6811084 C28.2288673,42.3496503 28.1662622,41.7503963 28.5022607,41.3426476 C28.8380839,40.9354178 29.4451961,40.8731397 29.8585305,41.2044247 L29.8585305,41.2044247 C30.751487,41.9187203 32.3767661,42.9049636 33.2471005,42.9049636 C33.2616558,42.9049636 33.2760357,42.9047907 33.2900649,42.9040987 C33.8210689,42.8819553 34.2710544,43.29178 34.2922735,43.8168193 C34.3134926,44.3418585 33.8992815,44.7845522 33.3670499,44.8056575 C33.3311002,44.8070415 33.2946243,44.8077335 33.2579731,44.8077335 Z" id="Shape"></path>
                <path d="M45.5808432,20.1388477 C44.7283959,20.1388477 44.1579349,19.9770975 44.093576,19.9580681 C43.5836158,19.8065246 43.294615,19.2756036 43.4484097,18.7723617 C43.601503,18.2713688 44.1365404,17.9866193 44.6435194,18.1341839 C44.7906503,18.1748377 47.8832049,18.9771876 50.2865767,15.3366849 C50.5771558,14.8965862 51.1747984,14.7720299 51.6211013,15.0586823 C52.0674041,15.3455077 52.1936667,15.934901 51.9027368,16.3753457 C49.7976602,19.5639859 47.188235,20.1388477 45.5808432,20.1388477 Z" id="Shape"></path>
                <path d="M51.6247839,23.8039155 C50.7149924,23.8039155 49.6266797,23.6188111 48.7335478,22.9276969 C47.5756154,22.0319298 47.0418056,20.5578411 47.1464983,18.5462575 C47.1738551,18.0213913 47.6271726,17.6190054 48.1592288,17.6449546 C48.6911096,17.6719418 49.1002352,18.1191333 49.0730537,18.6439996 C49.0025571,19.9980299 49.2871739,20.9341048 49.9188371,21.426448 C50.8245953,22.1320938 52.4012983,21.8881711 52.9323023,21.7347247 C53.442964,21.5873331 53.9788782,21.8741585 54.1298671,22.3767084 C54.2808561,22.8792583 53.9934335,23.4072385 53.4843501,23.5580899 C53.4233232,23.5762544 52.6336564,23.8039155 51.6247839,23.8039155 Z" id="Shape"></path>
            </g>
        </g>
    </g>
</svg>
