<?xml version="1.0" encoding="UTF-8"?>
<svg width="56px" height="65px" viewBox="0 0 56 65" version="1.1" xmlns="http://www.w3.org/2000/svg" xmlns:xlink="http://www.w3.org/1999/xlink">
    <!-- Generator: Sketch 46.2 (44496) - http://www.bohemiancoding.com/sketch -->
    <title>serv8</title>
    <desc>Created with Sketch.</desc>
    <defs></defs>
    <g id="Page-1" stroke="none" stroke-width="1" fill="none" fill-rule="evenodd">
        <g id="Artboard" transform="translate(-1228.000000, -266.000000)" fill-rule="nonzero" fill="#FFFFFF">
            <g id="Group-Copy" transform="translate(1219.000000, 262.000000)">
                <path d="M59.7755556,4.86666667 C57.3088889,4.86666667 55.2533333,6.89444444 55.2533333,9.32777778 C55.2533333,11.5177778 56.8155556,13.3022222 58.9533333,13.7077778 L58.9533333,23.6033333 C58.9533333,31.7144444 52.2933333,38.3655556 43.9888889,38.3655556 C35.7666667,38.2844444 29.1066667,31.7144444 29.1066667,23.6033333 L29.1066667,13.7077778 C31.1622222,13.3022222 32.8066667,11.5177778 32.8066667,9.32777778 C32.8066667,6.89444444 30.7511111,4.86666667 28.2844444,4.86666667 C25.8177778,4.86666667 23.7622222,6.89444444 23.7622222,9.32777778 C23.7622222,11.5177778 25.3244444,13.3022222 27.4622222,13.7077778 L27.4622222,23.6033333 C27.4622222,32.3633333 34.4511111,39.5011111 43.1666667,39.9066667 L43.1666667,54.6688889 C43.1666667,61.5633333 37.4933333,67.16 30.5044444,67.16 C23.5155556,67.16 17.8422222,61.5633333 17.8422222,54.6688889 L17.8422222,45.3411111 C21.3777778,44.9355556 24.1733333,41.9344444 24.1733333,38.3655556 C24.1733333,34.4722222 20.9666667,31.3088889 17.02,31.3088889 C13.0733333,31.3088889 9.86666667,34.4722222 9.86666667,38.3655556 C9.86666667,42.0155556 12.6622222,44.9355556 16.1977778,45.3411111 L16.1977778,54.6688889 C16.1977778,62.4555556 22.6111111,68.7822222 30.5044444,68.7822222 C38.3977778,68.7822222 44.8111111,62.4555556 44.8111111,54.6688889 L44.8111111,39.9066667 C53.6088889,39.5011111 60.5977778,32.3633333 60.5977778,23.6033333 L60.5977778,13.7077778 C62.6533333,13.3022222 64.2977778,11.5177778 64.2977778,9.32777778 C64.2155556,6.89444444 62.2422222,4.86666667 59.7755556,4.86666667 Z M25.4066667,9.32777778 C25.4066667,7.78666667 26.7222222,6.48888889 28.2844444,6.48888889 C29.8466667,6.48888889 31.1622222,7.78666667 31.1622222,9.32777778 C31.1622222,10.8688889 29.8466667,12.1666667 28.2844444,12.1666667 C26.64,12.1666667 25.4066667,10.8688889 25.4066667,9.32777778 Z M11.5111111,38.3655556 C11.5111111,35.3644444 13.9777778,32.9311111 17.02,32.9311111 C20.0622222,32.9311111 22.5288889,35.3644444 22.5288889,38.3655556 C22.5288889,41.3666667 20.0622222,43.8 17.02,43.8 C13.9777778,43.8 11.5111111,41.3666667 11.5111111,38.3655556 Z M59.7755556,12.1666667 C58.2133333,12.1666667 56.8977778,10.8688889 56.8977778,9.32777778 C56.8977778,7.78666667 58.2133333,6.48888889 59.7755556,6.48888889 C61.3377778,6.48888889 62.6533333,7.78666667 62.6533333,9.32777778 C62.5711111,10.8688889 61.3377778,12.1666667 59.7755556,12.1666667 Z" id="Shape"></path>
            </g>
        </g>
    </g>
</svg>
