<?xml version="1.0" encoding="UTF-8"?>
<svg width="60px" height="60px" viewBox="0 0 60 60" version="1.1" xmlns="http://www.w3.org/2000/svg" xmlns:xlink="http://www.w3.org/1999/xlink">
    <!-- Generator: Sketch 46.2 (44496) - http://www.bohemiancoding.com/sketch -->
    <title>serv2</title>
    <desc>Created with Sketch.</desc>
    <defs></defs>
    <g id="Page-1" stroke="none" stroke-width="1" fill="none" fill-rule="evenodd">
        <g id="Artboard" transform="translate(-506.000000, -69.000000)" fill-rule="nonzero" fill="#FFFFFF">
            <g id="Group" transform="translate(499.000000, 62.000000)">
                <path d="M37,7.3 C20.4733333,7.3 7.07111111,20.5211111 7.07111111,36.8244444 C7.07111111,53.1277778 20.4733333,66.3488889 37,66.3488889 C53.5266667,66.3488889 66.9288889,53.1277778 66.9288889,36.8244444 C66.9288889,20.5211111 53.5266667,7.3 37,7.3 Z M37,64.7266667 C21.3777778,64.7266667 8.71555556,52.2355556 8.71555556,36.8244444 C8.71555556,21.4133333 21.3777778,8.92222222 37,8.92222222 C52.6222222,8.92222222 65.2844444,21.4133333 65.2844444,36.8244444 C65.2844444,52.2355556 52.6222222,64.7266667 37,64.7266667 Z" id="Shape"></path>
                <path d="M37,12.3288889 C23.3511111,12.3288889 12.1688889,23.2788889 12.1688889,36.8244444 C12.1688889,50.2888889 23.2688889,61.2388889 37,61.2388889 C50.7311111,61.2388889 61.7488889,50.2888889 61.7488889,36.8244444 C61.7488889,23.36 50.6488889,12.3288889 37,12.3288889 Z M37,59.6166667 C24.2555556,59.6166667 13.8133333,49.3966667 13.8133333,36.7433333 C13.8133333,24.09 24.2555556,13.9511111 37,13.9511111 C49.7444444,13.9511111 60.1866667,24.1711111 60.1866667,36.8244444 C60.1866667,49.4777778 49.7444444,59.6166667 37,59.6166667 Z" id="Shape"></path>
                <path d="M21.7066667,39.42 C20.2266667,39.42 18.9933333,40.6366667 18.9933333,42.0966667 C18.9933333,43.5566667 20.2266667,44.7733333 21.7066667,44.7733333 C23.1866667,44.7733333 24.42,43.5566667 24.42,42.0966667 C24.42,40.6366667 23.1866667,39.42 21.7066667,39.42 Z M21.7066667,43.1511111 C21.1311111,43.1511111 20.6377778,42.6644444 20.6377778,42.0966667 C20.6377778,41.5288889 21.1311111,41.0422222 21.7066667,41.0422222 C22.2822222,41.0422222 22.7755556,41.5288889 22.7755556,42.0966667 C22.7755556,42.6644444 22.2822222,43.1511111 21.7066667,43.1511111 Z" id="Shape"></path>
                <path d="M29.5177778,47.7744444 C28.0377778,47.7744444 26.8044444,48.9911111 26.8044444,50.4511111 C26.8044444,51.9111111 28.0377778,53.1277778 29.5177778,53.1277778 C30.9977778,53.1277778 32.2311111,51.9111111 32.2311111,50.4511111 C32.2311111,48.9911111 30.9977778,47.7744444 29.5177778,47.7744444 Z M29.5177778,51.5055556 C28.9422222,51.5055556 28.4488889,51.0188889 28.4488889,50.4511111 C28.4488889,49.8833333 28.9422222,49.3966667 29.5177778,49.3966667 C30.0933333,49.3966667 30.5866667,49.8833333 30.5866667,50.4511111 C30.5866667,51.0188889 30.0933333,51.5055556 29.5177778,51.5055556 Z" id="Shape"></path>
                <path d="M51.5533333,33.8233333 C51.5533333,32.12 50.1555556,30.8222222 48.5111111,30.8222222 C46.7844444,30.8222222 45.4688889,32.2011111 45.4688889,33.8233333 C45.4688889,33.9855556 45.4688889,34.1477778 45.5511111,34.31 C45.14,34.1477778 44.6466667,34.0666667 44.1533333,34.0666667 C42.0155556,34.0666667 40.2888889,35.77 40.2888889,37.8788889 C40.2888889,39.2577778 41.0288889,40.3933333 42.0977778,41.0422222 C41.0288889,41.8533333 40.2066667,43.1511111 40.1244444,44.6111111 C39.7133333,44.3677778 39.22,44.2055556 38.6444444,44.2055556 C36.9177778,44.2055556 35.6022222,45.5844444 35.6022222,47.2066667 C35.6022222,48.8288889 37,50.2077778 38.6444444,50.2077778 C39.8777778,50.2077778 41.0288889,49.4777778 41.44,48.3422222 C42.3444444,49.3155556 43.66,49.8833333 45.0577778,49.8833333 C45.14,49.8833333 45.2222222,49.8833333 45.3044444,49.8833333 C45.0577778,50.2888889 44.8933333,50.7755556 44.8933333,51.3433333 C44.8933333,53.0466667 46.2911111,54.3444444 47.9355556,54.3444444 C49.6622222,54.3444444 50.9777778,52.9655556 50.9777778,51.3433333 C50.9777778,49.8833333 49.9911111,48.6666667 48.5933333,48.4233333 C49.4977778,47.5311111 49.9911111,46.3144444 49.9911111,45.0166667 C49.9911111,42.9077778 48.6755556,41.1233333 46.8666667,40.3933333 C47.5244444,39.7444444 47.8533333,38.8522222 47.8533333,37.7977778 C47.8533333,37.3922222 47.7711111,37.0677778 47.6888889,36.7433333 C47.9355556,36.8244444 48.1822222,36.8244444 48.4288889,36.8244444 C50.1555556,36.8244444 51.5533333,35.4455556 51.5533333,33.8233333 Z M48.4288889,32.3633333 C49.2511111,32.3633333 49.8266667,33.0122222 49.8266667,33.7422222 C49.8266667,34.4722222 49.1688889,35.1211111 48.4288889,35.1211111 C47.6888889,35.1211111 47.0311111,34.4722222 47.0311111,33.7422222 C47.0311111,33.0122222 47.6066667,32.3633333 48.4288889,32.3633333 Z M43.9888889,35.6077778 C45.2222222,35.6077778 46.2088889,36.5811111 46.2088889,37.7977778 C46.2088889,39.0144444 45.2222222,39.9877778 43.9888889,39.9877778 C42.7555556,39.9877778 41.7688889,39.0144444 41.7688889,37.7977778 C41.7688889,36.5811111 42.7555556,35.6077778 43.9888889,35.6077778 Z M38.3977778,48.5855556 C37.5755556,48.5855556 37,47.9366667 37,47.2066667 C37,46.4766667 37.6577778,45.8277778 38.3977778,45.8277778 C39.1377778,45.8277778 39.7955556,46.4766667 39.7955556,47.2066667 C39.7955556,47.9366667 39.22,48.5855556 38.3977778,48.5855556 Z M49.3333333,51.3433333 C49.3333333,52.1544444 48.6755556,52.7222222 47.9355556,52.7222222 C47.1955556,52.7222222 46.5377778,52.0733333 46.5377778,51.3433333 C46.5377778,50.6133333 47.1955556,49.9644444 47.9355556,49.9644444 C48.6755556,49.9644444 49.3333333,50.5322222 49.3333333,51.3433333 Z M48.3466667,44.9355556 C48.3466667,46.8011111 46.7844444,48.2611111 44.9755556,48.2611111 C43.1666667,48.2611111 41.6044444,46.8011111 41.6044444,44.9355556 C41.6044444,43.07 43.1666667,41.61 44.9755556,41.61 C46.7844444,41.61 48.3466667,43.07 48.3466667,44.9355556 Z" id="Shape"></path>
                <path d="M47.6066667,26.7666667 C49.0866667,26.7666667 50.32,25.55 50.32,24.09 C50.32,22.63 49.0866667,21.4133333 47.6066667,21.4133333 C46.1266667,21.4133333 44.8933333,22.63 44.8933333,24.09 C44.8933333,25.55 46.1266667,26.7666667 47.6066667,26.7666667 Z M47.6066667,23.0355556 C48.1822222,23.0355556 48.6755556,23.5222222 48.6755556,24.09 C48.6755556,24.6577778 48.1822222,25.1444444 47.6066667,25.1444444 C47.0311111,25.1444444 46.5377778,24.6577778 46.5377778,24.09 C46.5377778,23.5222222 47.0311111,23.0355556 47.6066667,23.0355556 Z" id="Shape"></path>
                <path d="M37.4933333,33.6611111 C37.4933333,32.9311111 37.3288889,32.2822222 37,31.7144444 C37.2466667,31.7955556 37.4933333,31.7955556 37.6577778,31.7955556 C39.6311111,31.7955556 41.1933333,30.2544444 41.1933333,28.3077778 C41.1933333,26.3611111 39.6311111,24.82 37.6577778,24.82 C36.5066667,24.82 35.52,25.3066667 34.9444444,26.1177778 C34.78,23.2788889 32.3955556,21.0888889 29.5177778,21.0888889 C26.5577778,21.0888889 24.1733333,23.4411111 24.0911111,26.28 C23.5155556,25.9555556 22.8577778,25.7122222 22.2,25.7122222 C20.2266667,25.7122222 18.6644444,27.2533333 18.6644444,29.2 C18.6644444,31.1466667 20.2266667,32.6877778 22.2,32.6877778 C23.8444444,32.6877778 25.2422222,31.5522222 25.5711111,30.0922222 C26.4755556,31.0655556 27.7088889,31.6333333 29.1066667,31.7144444 C28.86,32.2822222 28.6133333,32.9311111 28.6133333,33.58 C28.6133333,34.7966667 29.1066667,35.9322222 29.9288889,36.6622222 C28.7777778,37.23 27.9555556,38.3655556 27.9555556,39.7444444 C27.9555556,41.6911111 29.5177778,43.2322222 31.4911111,43.2322222 C33.4644444,43.2322222 35.0266667,41.6911111 35.0266667,39.7444444 C35.0266667,38.9333333 34.78,38.2033333 34.2866667,37.6355556 C36.1777778,37.1488889 37.4933333,35.6077778 37.4933333,33.6611111 Z M33.0533333,36.3377778 C31.5733333,36.3377778 30.34,35.1211111 30.34,33.6611111 C30.34,32.6066667 30.9155556,31.7144444 31.82,31.3088889 C31.9022222,31.2277778 31.9844444,31.2277778 32.0666667,31.1466667 C32.3955556,31.0655556 32.7244444,30.9844444 33.0533333,30.9844444 C34.5333333,30.9844444 35.7666667,32.2011111 35.7666667,33.6611111 C35.7666667,35.1211111 34.6155556,36.3377778 33.0533333,36.3377778 Z M34.04,29.4433333 C34.1222222,29.3622222 34.2044444,29.2 34.2866667,29.1188889 C34.2866667,29.2811111 34.3688889,29.4433333 34.4511111,29.6055556 C34.2866667,29.5244444 34.1222222,29.4433333 34.04,29.4433333 Z M37.6577778,26.4422222 C38.7266667,26.4422222 39.5488889,27.2533333 39.5488889,28.3077778 C39.5488889,29.3622222 38.7266667,30.1733333 37.6577778,30.1733333 C36.5888889,30.1733333 35.7666667,29.3622222 35.7666667,28.3077778 C35.7666667,27.2533333 36.5888889,26.4422222 37.6577778,26.4422222 Z M22.2,31.0655556 C21.1311111,31.0655556 20.3088889,30.2544444 20.3088889,29.2 C20.3088889,28.1455556 21.1311111,27.3344444 22.2,27.3344444 C23.2688889,27.3344444 24.0911111,28.1455556 24.0911111,29.2 C24.0911111,30.2544444 23.2688889,31.0655556 22.2,31.0655556 Z M25.7355556,26.4422222 C25.7355556,24.4144444 27.4622222,22.7111111 29.5177778,22.7111111 C31.5733333,22.7111111 33.3,24.4144444 33.3,26.4422222 C33.3,28.47 31.5733333,30.1733333 29.5177778,30.1733333 C27.4622222,30.1733333 25.7355556,28.47 25.7355556,26.4422222 Z M31.6555556,41.6911111 C30.5866667,41.6911111 29.7644444,40.88 29.7644444,39.8255556 C29.7644444,38.7711111 30.5866667,37.96 31.6555556,37.96 C32.7244444,37.96 33.5466667,38.7711111 33.5466667,39.8255556 C33.5466667,40.88 32.7244444,41.6911111 31.6555556,41.6911111 Z" id="Shape"></path>
            </g>
        </g>
    </g>
</svg>
