<?xml version="1.0" encoding="UTF-8"?>
<svg width="56px" height="64px" viewBox="0 0 56 64" version="1.1" xmlns="http://www.w3.org/2000/svg" xmlns:xlink="http://www.w3.org/1999/xlink">
    <!-- Generator: Sketch 46.2 (44496) - http://www.bohemiancoding.com/sketch -->
    <title>serv3</title>
    <desc>Created with Sketch.</desc>
    <defs></defs>
    <g id="Page-1" stroke="none" stroke-width="1" fill="none" fill-rule="evenodd">
        <g id="Artboard" transform="translate(-868.000000, -86.000000)" fill-rule="nonzero" fill="#FFFFFF">
            <g id="Group-Copy-7" transform="translate(859.000000, 82.000000)">
                <path d="M28.7777778,22.7922222 L32.1488889,22.7922222 L32.1488889,26.1177778 C32.1488889,26.6044444 32.4777778,26.9288889 32.9711111,26.9288889 C33.4644444,26.9288889 33.7933333,26.6044444 33.7933333,26.1177778 L33.7933333,22.7922222 L37.1644444,22.7922222 C37.6577778,22.7922222 37.9866667,22.4677778 37.9866667,21.9811111 C37.9866667,21.4944444 37.6577778,21.17 37.1644444,21.17 L33.7933333,21.17 L33.7933333,17.8444444 C33.7933333,17.3577778 33.4644444,17.0333333 32.9711111,17.0333333 C32.4777778,17.0333333 32.1488889,17.3577778 32.1488889,17.8444444 L32.1488889,21.17 L28.7777778,21.17 C28.2844444,21.17 27.9555556,21.4944444 27.9555556,21.9811111 C27.9555556,22.4677778 28.2844444,22.7922222 28.7777778,22.7922222 Z" id="Shape"></path>
                <path d="M57.5555556,5.02888889 C57.3911111,4.86666667 57.1444444,4.86666667 56.98,4.86666667 L26.5577778,8.76 C26.5577778,8.76 26.4755556,8.76 26.4755556,8.76 L9.86666667,8.76 C9.37333333,8.76 9.04444444,9.08444444 9.04444444,9.57111111 L9.04444444,66.8355556 C9.04444444,67.3222222 9.37333333,67.6466667 9.86666667,67.6466667 L54.3488889,67.6466667 C54.8422222,67.6466667 55.1711111,67.3222222 55.1711111,66.8355556 L55.1711111,61.8066667 L63.9688889,60.7522222 C64.38,60.6711111 64.7088889,60.2655556 64.7088889,59.86 L57.8844444,5.51555556 C57.8844444,5.35333333 57.72,5.19111111 57.5555556,5.02888889 Z M53.5266667,66.1055556 L10.6888889,66.1055556 L10.6888889,10.4633333 L53.5266667,10.4633333 L53.5266667,66.1055556 Z M55.1711111,60.2655556 L55.1711111,9.65222222 C55.1711111,9.16555556 54.8422222,8.84111111 54.3488889,8.84111111 L39.0555556,8.84111111 L56.3222222,6.57 L62.9822222,59.2922222 L55.1711111,60.2655556 Z" id="Shape"></path>
                <path d="M17.2666667,35.6888889 L48.2644444,35.6888889 C48.7577778,35.6888889 49.0866667,35.3644444 49.0866667,34.8777778 C49.0866667,34.3911111 48.7577778,34.0666667 48.2644444,34.0666667 L17.2666667,34.0666667 C16.7733333,34.0666667 16.4444444,34.3911111 16.4444444,34.8777778 C16.4444444,35.3644444 16.8555556,35.6888889 17.2666667,35.6888889 Z" id="Shape"></path>
                <path d="M17.2666667,42.1777778 L48.2644444,42.1777778 C48.7577778,42.1777778 49.0866667,41.8533333 49.0866667,41.3666667 C49.0866667,40.88 48.7577778,40.5555556 48.2644444,40.5555556 L17.2666667,40.5555556 C16.7733333,40.5555556 16.4444444,40.88 16.4444444,41.3666667 C16.4444444,41.8533333 16.8555556,42.1777778 17.2666667,42.1777778 Z" id="Shape"></path>
                <path d="M17.2666667,49.4777778 L48.2644444,49.4777778 C48.7577778,49.4777778 49.0866667,49.1533333 49.0866667,48.6666667 C49.0866667,48.18 48.7577778,47.8555556 48.2644444,47.8555556 L17.2666667,47.8555556 C16.7733333,47.8555556 16.4444444,48.18 16.4444444,48.6666667 C16.4444444,49.1533333 16.8555556,49.4777778 17.2666667,49.4777778 Z" id="Shape"></path>
                <path d="M17.2666667,55.9666667 L48.2644444,55.9666667 C48.7577778,55.9666667 49.0866667,55.6422222 49.0866667,55.1555556 C49.0866667,54.6688889 48.7577778,54.3444444 48.2644444,54.3444444 L17.2666667,54.3444444 C16.7733333,54.3444444 16.4444444,54.6688889 16.4444444,55.1555556 C16.4444444,55.6422222 16.8555556,55.9666667 17.2666667,55.9666667 Z" id="Shape"></path>
            </g>
        </g>
    </g>
</svg>
